# xmcd
#
# Track frame offsets:
#	182
#	8212
#	32287
#	44412
#	63475
#	77387
#	97000
#	119212
#	140362
#	156475
#	170275
#
# Disc length: 2448 seconds
#
# Revision: 0
# Processed by: cddbd v1.5.1PL0 Copyright (c) Steve Scherf et al.
# Submitted via: dBpowerAMP V4.0
#
DISCID=8c098e0b
DTITLE=Inlavables - Hot Box Blues
DYEAR=1900
DGENRE=
TTITLE0=Inspector Calzone
TTITLE1=Hot Box Blues
TTITLE2=Don´t touch me
TTITLE3=Entra en el juego
TTITLE4=Walking by myself
TTITLE5=My girl
TTITLE6=i got to drink my soul
TTITLE7=Sintiendo blues
TTITLE8=Rompe tu inocencia
TTITLE9=Sierra Madre
TTITLE10=No need to cry
EXTD=
EXTT0=
EXTT1=
EXTT2=
EXTT3=
EXTT4=
EXTT5=
EXTT6=
EXTT7=
EXTT8=
EXTT9=
EXTT10=
PLAYORDER=
